#!OML:ASF H:\Dans Jumps\Project 1\Capture day 1\Session 1\subject.ASF
:FULLY-SPECIFIED
:DEGREES
500
root 0.767394 17.7438 6.47948 5.14486 1.30686 -1.87034
lowerback -2.11464 -0.396949 -0.115594
upperback 1.82141 -0.571647 1.63711
thorax 3.0748 -0.306642 1.72082
lowerneck -13.1441 -0.578209 -2.29366
upperneck 22.9303 -0.529803 1.05846
head 9.40086 -0.327759 0.68878
rclavicle 2.31087e-015 -4.96962e-015
rhumerus -21.8526 -12.2202 -85.2138
rradius 26.6499
rwrist 30.3672
rhand -20.1576 -26.9966
rfingers 7.12502
rthumb 6.1877 -56.8862
lclavicle 2.31087e-015 -4.96962e-015
lhumerus -17.945 6.93733 89.4733
lradius 13.664
lwrist -4.56345
lhand -25.6569 -5.83258
lfingers 7.12502
lthumb 0.87708 24.1454
rfemur -12.9884 -2.07945 20.1375
rtibia 19.5363
rfoot -10.8157 -0.230753
rtoes 17.5925
lfemur -11.5797 6.5402 -17.5139
ltibia 18.1587
lfoot -9.49848 2.37968
ltoes -2.9537
501
root 0.76864 17.7438 6.47956 5.14656 1.30913 -1.88427
lowerback -2.12216 -0.396311 -0.107869
upperback 1.80998 -0.571206 1.6455
thorax 3.06725 -0.306271 1.72511
lowerneck -13.1111 -0.600842 -2.29852
upperneck 22.7514 -0.558806 1.0513
head 9.33265 -0.341773 0.683075
rclavicle 2.6339e-015 4.17448e-015
rhumerus -21.8943 -12.3251 -85.1599
rradius 26.5534
rwrist 30.4805
rhand -20.1584 -26.9821
rfingers 7.12502
rthumb 6.18686 -56.8718
lclavicle 2.6339e-015 4.17448e-015
lhumerus -18.0693 7.00174 89.4252
lradius 13.6358
lwrist -4.61406
lhand -25.6593 -5.85786
lfingers 7.12502
lthumb 0.874778 24.1201
rfemur -12.985 -2.06572 20.1479
rtibia 19.5267
rfoot -10.8121 -0.246167
rtoes 17.6034
lfemur -11.5871 6.53016 -17.502
ltibia 18.1696
lfoot -9.50877 2.38773
ltoes -2.93157
502
root 0.769818 17.7437 6.47948 5.14862 1.31127 -1.89863
lowerback -2.12676 -0.395432 -0.100611
upperback 1.797 -0.57037 1.6536
thorax 3.05645 -0.30569 1.7294
lowerneck -13.0855 -0.624211 -2.30661
upperneck 22.5803 -0.589798 1.05189
head 9.26878 -0.356172 0.680414
rclavicle -2.38542e-015 5.96354e-015
rhumerus -21.9411 -12.4386 -85.1003
rradius 26.4473
rwrist 30.6019
rhand -20.1552 -26.9723
rfingers 7.12502
rthumb 6.18994 -56.8619
lclavicle -2.38542e-015 5.96354e-015
lhumerus -18.192 7.07654 89.3706
lradius 13.5971
lwrist -4.67897
lhand -25.6713 -5.89121
lfingers 7.12502
lthumb 0.863248 24.0868
rfemur -12.9822 -2.05024 20.1589
rtibia 19.516
rfoot -10.8076 -0.261778
rtoes 17.6207
lfemur -11.5976 6.52177 -17.4897
ltibia 18.1834
lfoot -9.51796 2.39605
ltoes -2.92397
503
root 0.770949 17.7436 6.47934 5.15085 1.31079 -1.91175
lowerback -2.13039 -0.393436 -0.0947099
upperback 1.78438 -0.567955 1.66039
thorax 3.04542 -0.304337 1.73319
lowerneck -13.0679 -0.648497 -2.31682
upperneck 22.4154 -0.622405 1.05681
head 9.20879 -0.371059 0.679459
rclavicle 1.0958e-014 -6.55989e-015
rhumerus -21.9916 -12.5562 -85.0368
rradius 26.3347
rwrist 30.7265
rhand -20.1485 -26.9706
rfingers 7.12502
rthumb 6.19649 -56.86
lclavicle 1.0958e-014 -6.55989e-015
lhumerus -18.3146 7.17754 89.3063
lradius 13.5496
lwrist -4.77525
lhand -25.681 -5.91654
lfingers 7.12502
lthumb 0.853813 24.0615
rfemur -12.9804 -2.03212 20.1686
rtibia 19.5055
rfoot -10.8022 -0.277146
rtoes 17.64
lfemur -11.6086 6.51525 -17.4791
ltibia 18.1977
lfoot -9.52543 2.40724
ltoes -2.92268
504
root 0.772047 17.7434 6.47911 5.15366 1.30748 -1.92215
lowerback -2.13387 -0.391137 -0.0924108
upperback 1.77183 -0.564977 1.66611
thorax 3.03439 -0.302769 1.73792
lowerneck -13.0561 -0.671705 -2.32784
upperneck 22.2557 -0.653872 1.06473
head 9.15181 -0.385184 0.679843
rclavicle 9.29318e-015 3.57812e-015
rhumerus -22.0475 -12.6758 -84.9696
rradius 26.2182
rwrist 30.8529
rhand -20.1384 -26.975
rfingers 7.12502
rthumb 6.20624 -56.8641
lclavicle 9.29318e-015 3.57812e-015
lhumerus -18.4382 7.29765 89.2343
lradius 13.496
lwrist -4.89273
lhand -25.6946 -5.95268
lfingers 7.12502
lthumb 0.840669 24.0254
rfemur -12.9805 -2.01285 20.1753
rtibia 19.4967
rfoot -10.7963 -0.289724
rtoes 17.6598
lfemur -11.6196 6.51078 -17.4716
ltibia 18.2109
lfoot -9.5311 2.41845
ltoes -2.93022
505
root 0.7731 17.7432 6.47878 5.15679 1.30142 -1.93169
lowerback -2.13669 -0.388441 -0.0920454
upperback 1.75973 -0.561395 1.6715
thorax 3.02344 -0.30094 1.74344
lowerneck -13.0436 -0.694453 -2.34288
upperneck 22.0935 -0.685057 1.07821
head 9.094 -0.398922 0.682858
rclavicle 4.94477e-015 -1.23246e-014
rhumerus -22.108 -12.8033 -84.8978
rradius 26.0978
rwrist 30.9873
rhand -20.1313 -26.9786
rfingers 7.12502
rthumb 6.21303 -56.8674
lclavicle 4.94477e-015 -1.23246e-014
lhumerus -18.5638 7.43874 89.1546
lradius 13.4404
lwrist -5.03046
lhand -25.6987 -5.95996
lfingers 7.12502
lthumb 0.83678 24.0181
rfemur -12.982 -1.99145 20.1811
rtibia 19.4881
rfoot -10.7897 -0.302048
rtoes 17.6719
lfemur -11.6301 6.50649 -17.4648
ltibia 18.2237
lfoot -9.5362 2.43067
ltoes -2.92857
506
root 0.774154 17.743 6.47838 5.16096 1.2925 -1.93897
lowerback -2.13819 -0.384951 -0.0945484
upperback 1.74645 -0.556598 1.67604
thorax 3.01052 -0.298543 1.74975
lowerneck -13.0334 -0.716816 -2.35745
upperneck 21.9322 -0.715786 1.09207
head 9.03706 -0.412387 0.685995
rclavicle 3.55328e-015 1.76918e-014
rhumerus -22.1759 -12.9447 -84.8197
rradius 25.9725
rwrist 31.1304
rhand -20.122 -26.9876
rfingers 7.12502
rthumb 6.222 -56.8762
lclavicle 3.55328e-015 1.76918e-014
lhumerus -18.6938 7.60066 89.0677
lradius 13.3833
lwrist -5.18787
lhand -25.697 -5.94486
lfingers 7.12502
lthumb 0.838439 24.0332
rfemur -12.985 -1.97266 20.1847
rtibia 19.4786
rfoot -10.7828 -0.308926
rtoes 17.6694
lfemur -11.641 6.50142 -17.4604
ltibia 18.2366
lfoot -9.54052 2.44579
ltoes -2.93462
507
root 0.775105 17.7428 6.47805 5.16414 1.27874 -1.9511
lowerback -2.13841 -0.378719 -0.0929445
upperback 1.73188 -0.548271 1.68117
thorax 2.9954 -0.294289 1.75454
lowerneck -13.0284 -0.739784 -2.36846
upperneck 21.7774 -0.747445 1.10351
head 8.98344 -0.426281 0.687632
rclavicle 1.01629e-014 -5.1684e-015
rhumerus -22.2486 -13.1196 -84.7318
rradius 25.8328
rwrist 31.2985
rhand -20.1242 -26.9809
rfingers 7.12502
rthumb 6.21992 -56.8696
lclavicle 1.01629e-014 -5.1684e-015
lhumerus -18.8298 7.76136 88.9775
lradius 13.3267
lwrist -5.3476
lhand -25.6885 -5.90803
lfingers 7.12502
lthumb 0.846584 24.07
rfemur -12.9859 -1.94956 20.1939
rtibia 19.4665
rfoot -10.7742 -0.313878
rtoes 17.6713
lfemur -11.6499 6.4969 -17.4496
ltibia 18.2506
lfoot -9.54598 2.46379
ltoes -2.93266
508
root 0.775926 17.7427 6.47773 5.1672 1.26007 -1.96597
lowerback -2.13734 -0.371052 -0.0912418
upperback 1.71666 -0.538052 1.68785
thorax 2.97883 -0.289098 1.76096
lowerneck -13.0307 -0.763288 -2.37759
upperneck 21.6289 -0.779186 1.11117
head 8.93346 -0.440489 0.687681
rclavicle 4.87022e-015 -7.55382e-015
rhumerus -22.3247 -13.3188 -84.6346
rradius 25.6833
rwrist 31.4853
rhand -20.1357 -26.9699
rfingers 7.12502
rthumb 6.20876 -56.8589
lclavicle 4.87022e-015 -7.55382e-015
lhumerus -18.9671 7.93134 88.8837
lradius 13.2685
lwrist -5.51552
lhand -25.676 -5.86945
lfingers 7.12502
lthumb 0.858646 24.1086
rfemur -12.9854 -1.92219 20.2066
rtibia 19.4512
rfoot -10.7651 -0.31915
rtoes 17.6603
lfemur -11.6589 6.4975 -17.4352
ltibia 18.266
lfoot -9.55322 2.48231
ltoes -2.93828
509
root 0.776646 17.7425 6.47763 5.16815 1.23613 -1.98405
lowerback -2.13632 -0.361641 -0.0874316
upperback 1.70261 -0.525619 1.69543
thorax 2.96341 -0.282778 1.76722
lowerneck -13.0393 -0.788954 -2.38396
upperneck 21.4837 -0.813452 1.11482
head 8.88588 -0.456096 0.685638
rclavicle -3.00662e-015 4.96962e-015
rhumerus -22.4 -13.5446 -84.5288
rradius 25.5194
rwrist 31.6935
rhand -20.1428 -26.972
rfingers 7.12502
rthumb 6.20195 -56.8612
lclavicle -3.00662e-015 4.96962e-015
lhumerus -19.1024 8.10147 88.7876
lradius 13.2018
lwrist -5.6875
lhand -25.6765 -5.86484
lfingers 7.12502
lthumb 0.858152 24.1132
rfemur -12.9801 -1.88898 20.2229
rtibia 19.432
rfoot -10.7556 -0.324408
rtoes 17.6589
lfemur -11.6645 6.50143 -17.4163
ltibia 18.2831
lfoot -9.56388 2.50317
ltoes -2.93765
510
root 0.777264 17.7423 6.4776 5.16798 1.20797 -2.0043
lowerback -2.13303 -0.351915 -0.082807
upperback 1.68688 -0.512772 1.70396
thorax 2.94498 -0.276225 1.77403
lowerneck -13.0444 -0.815636 -2.3882
upperneck 21.3369 -0.849142 1.1162
head 8.83722 -0.472468 0.682332
rclavicle -4.79568e-015 -1.33186e-014
rhumerus -22.4819 -13.7863 -84.4157
rradius 25.3481
rwrist 31.9157
rhand -20.1491 -26.9867
rfingers 7.12502
rthumb 6.19586 -56.876
lclavicle -4.79568e-015 -1.33186e-014
lhumerus -19.2376 8.26397 88.6899
lradius 13.1322
lwrist -5.85327
lhand -25.6882 -5.87848
lfingers 7.12502
lthumb 0.846877 24.0996
rfemur -12.9728 -1.85242 20.2419
rtibia 19.411
rfoot -10.7466 -0.328656
rtoes 17.6678
lfemur -11.6683 6.51058 -17.3944
ltibia 18.3003
lfoot -9.57585 2.5234
ltoes -2.9366
511
root 0.777775 17.7423 6.47766 5.16737 1.17485 -2.02452
lowerback -2.13171 -0.34181 -0.0792965
upperback 1.67253 -0.499421 1.7126
thorax 2.92908 -0.269461 1.78159
lowerneck -13.0409 -0.845013 -2.38887
upperneck 21.18 -0.888061 1.11116
head 8.78365 -0.490755 0.67591
rclavicle 5.59082e-015 3.57812e-015
rhumerus -22.564 -14.0447 -84.2966
rradius 25.1696
rwrist 32.1553
rhand -20.1523 -27.012
rfingers 7.12502
rthumb 6.19282 -56.9015
lclavicle 5.59082e-015 3.57812e-015
lhumerus -19.3729 8.42736 88.5892
lradius 13.0632
lwrist -6.02232
lhand -25.7081 -5.9237
lfingers 7.12502
lthumb 0.827646 24.0544
rfemur -12.9651 -1.80942 20.2611
rtibia 19.3892
rfoot -10.7371 -0.335188
rtoes 17.6878
lfemur -11.67 6.52233 -17.3721
ltibia 18.3159
lfoot -9.58718 2.54527
ltoes -2.93129
